<?xml version="1.0" encoding="UTF-8" standalone="yes"?>
<!-- Created with sK1/UniConvertor (http://sk1project.org/) -->
<svg xmlns="http://www.w3.org/2000/svg" xmlns:xlink="http://www.w3.org/1999/xlink"
  width="595.276pt" height="841.89pt" viewBox="0 0 595.276 841.89"
  fill-rule="evenodd">
<g>
<path style="stroke:none; fill:#5b9bd3" d="M 0.959882 776.01L 0.959882 840.81L 52.7935 840.81L 52.7935 776.01L 0.959882 776.01z"/>
<path style="stroke:#416f9c; stroke-width:0.959882; fill:none" d="M 0.959882 840.81L 52.7935 840.81L 52.7935 776.01L 0.959882 776.01L 0.959882 840.81z"/>
<path style="stroke:none; fill:#5b9bd3" d="M 95.1483 812.61L 187.777 812.61L 187.777 823.41L 209.254 801.93L 187.777 780.45L 187.777 791.25L 95.1483 791.25L 95.1483 812.61z"/>
<path style="stroke:#416f9c; stroke-width:0.959882; fill:none" d="M 95.1483 812.61L 187.777 812.61L 187.777 823.41L 209.254 801.93L 187.777 780.45L 187.777 791.25L 95.1483 791.25L 95.1483 812.61z"/>
<path style="stroke:none; fill:#5b9bd3" d="M 303.203 748.17L 317.121 748.17L 317.121 821.37L 345.078 821.37L 345.078 748.17L 359.116 748.17L 331.159 720.21L 303.203 748.17z"/>
<path style="stroke:#416f9c; stroke-width:0.959882; fill:none" d="M 303.203 748.17L 317.121 748.17L 317.121 821.37L 345.078 821.37L 345.078 748.17L 359.116 748.17L 331.159 720.21L 303.203 748.17z"/>
<path style="stroke:#416f9c; stroke-width:0.959882; fill:none" d="M 30.2363 712.41L 34.0758 713.13L 37.9154 713.85L 41.6349 714.57L 45.4744 715.17L 49.314 715.77L 53.1535 716.25L 55.0732 716.37L 56.993 716.61L 58.9128 716.73L 60.8325 716.85L 62.7523 716.85L 64.6721 716.85L 66.5918 716.85L 68.5116 716.85L 70.4314 716.73L 72.4711 716.49L 74.3909 716.37L 76.3106 716.01L 78.2304 715.77L 80.1502 715.41L 82.0699 714.93L 83.9897 714.45L 86.0294 713.85L 87.9492 713.25L 89.869 712.53L 91.9087 711.69L 92.8686 711.33L 93.8285 710.85L 94.7884 710.37L 95.7483 709.77L 96.7081 709.17L 97.668 708.57L 98.7479 707.97L 99.7078 707.25L 100.668 706.53L 101.628 705.69L 103.547 704.13L 105.587 702.45L 107.507 700.65L 109.427 698.85L 111.466 696.81L 113.386 694.89L 115.426 692.85L 117.346 690.69L 119.265 688.65L 123.225 684.45L 125.265 682.29L 127.184 680.25L 129.224 678.21L 131.144 676.29L 133.184 674.37L 135.223 672.45L 137.143 670.77L 139.183 669.09L 141.223 667.41L 142.183 666.69L 143.262 665.97L 144.222 665.37L 145.182 664.65L 146.262 664.05L 147.222 663.57L 148.302 662.97L 149.262 662.49L 150.342 662.01L 151.301 661.65L 152.381 661.29L 153.341 660.93L 154.421 660.69L 155.381 660.45L 156.461 660.33L 157.541 660.09L 158.621 659.97L 159.7 659.97L 160.9 659.85L 162.1 659.85L 164.5 659.85L 166.9 659.97L 169.539 660.33L 172.059 660.57L 174.699 661.05L 177.458 661.65L 180.098 662.25L 182.858 662.97L 185.497 663.69L 188.257 664.53L 190.897 665.49L 193.536 666.45L 196.176 667.41L 198.696 668.49L 201.215 669.57L 203.615 670.65L 205.895 671.85L 208.174 673.05L 209.254 673.65L 210.214 674.25L 211.294 674.85L 212.254 675.57L 213.214 676.17L 214.054 676.77L 215.014 677.37L 215.854 677.97L 216.573 678.57L 217.413 679.29L 218.133 679.89L 218.733 680.49L 219.333 681.09L 219.933 681.69L 220.533 682.29L 221.013 682.89L 221.493 683.49L 221.853 684.09L 222.213 684.69L 222.453 685.29L 222.693 685.89L 222.813 686.37L 223.053 686.97L 223.053 687.57L 223.053 688.17L 223.053 688.77L 222.933 689.49L 222.813 690.09L 222.573 690.81L 222.333 691.41L 222.093 692.13L 221.733 692.85L 221.373 693.57L 221.013 694.29L 220.533 695.01L 220.053 695.73L 219.453 696.57L 218.853 697.29L 218.253 698.13L 217.653 698.85L 216.933 699.69L 216.333 700.53L 215.494 701.25L 214.774 702.09L 213.214 703.77L 211.414 705.33L 209.614 707.01L 207.815 708.69L 205.895 710.37L 203.855 711.93L 201.815 713.61L 199.776 715.17L 197.616 716.73L 195.456 718.29L 193.416 719.85L 191.257 721.29L 189.097 722.73L 187.057 724.17L 185.017 725.49L 183.098 726.69L 181.178 727.89L 179.258 728.97L 177.458 730.05L 175.778 731.01L 174.219 731.85L 172.659 732.69L 171.219 733.41L 169.659 734.13L 168.099 734.73L 166.54 735.33L 164.98 735.81L 163.54 736.29L 161.98 736.77L 160.42 737.25L 158.861 737.61L 157.301 737.85L 155.861 738.21L 154.301 738.45L 152.741 738.69L 151.181 738.81L 149.622 739.05L 146.502 739.29L 143.502 739.41L 140.383 739.53L 137.263 739.41L 134.264 739.41L 131.144 739.29L 124.905 739.05"/>
<path style="stroke:#5b9bd3; stroke-width:0.479941; fill:none" d="M 410.35 816.21L 412.149 816.21L 413.949 816.21L 415.629 816.09L 417.309 815.97L 418.749 815.85L 420.308 815.73L 421.628 815.61L 422.948 815.37L 423.548 815.25L 424.028 815.13L 424.628 815.01L 425.108 814.89L 425.588 814.77L 425.948 814.65L 426.308 814.53L 426.668 814.41L 427.028 814.29L 427.268 814.17L 427.508 814.05L 427.748 813.81L 427.868 813.69L 427.988 813.57L 428.108 813.45L 428.108 813.33L 428.108 742.65L 428.108 742.53L 428.228 742.29L 428.347 742.17L 428.467 742.05L 428.707 741.93L 428.947 741.81L 429.187 741.57L 429.547 741.45L 429.907 741.33L 430.267 741.21L 430.747 741.09L 431.107 740.97L 431.707 740.85L 432.187 740.73L 432.787 740.61L 433.387 740.49L 434.587 740.37L 435.907 740.13L 437.466 740.01L 439.026 739.89L 440.586 739.77L 442.386 739.77L 444.066 739.65L 445.985 739.65L 444.066 739.65L 442.386 739.65L 440.586 739.53L 439.026 739.41L 437.466 739.29L 435.907 739.17L 434.587 739.05L 433.387 738.81L 432.787 738.69L 432.187 738.57L 431.707 738.45L 431.107 738.33L 430.747 738.21L 430.267 738.09L 429.907 737.97L 429.547 737.85L 429.187 737.73L 428.947 737.61L 428.707 737.49L 428.467 737.25L 428.347 737.13L 428.228 737.01L 428.108 736.89L 428.108 736.77L 428.108 666.09L 428.108 665.97L 427.988 665.73L 427.868 665.61L 427.748 665.49L 427.508 665.37L 427.268 665.13L 427.028 665.01L 426.668 664.89L 426.308 664.77L 425.948 664.65L 425.588 664.53L 425.108 664.41L 424.628 664.29L 424.028 664.17L 423.548 664.05L 422.948 663.93L 421.628 663.81L 420.308 663.57L 418.749 663.45L 417.309 663.33L 415.629 663.21L 413.949 663.21L 412.149 663.09L 410.35 663.09"/>
</g>
</svg>